<?xml version="1.0" encoding="UTF-8" standalone="no"?>
<!-- Uploaded to: SVG Repo, www.svgrepo.com, Transformed by: SVG Repo Mixer Tools -->

<svg
   version="1.1"
   id="_x32_"
   width="800px"
   height="800px"
   viewBox="0 0 512 512"
   xml:space="preserve"
   fill="#000000"
   transform="matrix(1, 0, 0, -1, 0, 0)"
   sodipodi:docname="TZxCustomStyleObject.svg"
   inkscape:version="1.3.2 (091e20e, 2023-11-25, custom)"
   inkscape:export-filename="TZxCustomStyleObject.png"
   inkscape:export-xdpi="24"
   inkscape:export-ydpi="24"
   xmlns:inkscape="http://www.inkscape.org/namespaces/inkscape"
   xmlns:sodipodi="http://sodipodi.sourceforge.net/DTD/sodipodi-0.dtd"
   xmlns:xlink="http://www.w3.org/1999/xlink"
   xmlns="http://www.w3.org/2000/svg"
   xmlns:svg="http://www.w3.org/2000/svg"><defs
   id="defs2"><linearGradient
     id="linearGradient15"
     inkscape:collect="always"><stop
       style="stop-color:#7fffa7;stop-opacity:1;"
       offset="0.36164382"
       id="stop17" /><stop
       style="stop-color:#ffffff;stop-opacity:1;"
       offset="1"
       id="stop16" /></linearGradient><linearGradient
     id="swatch3"
     inkscape:swatch="solid"><stop
       style="stop-color:#00ffaa;stop-opacity:1;"
       offset="0"
       id="stop3" /></linearGradient><linearGradient
     id="swatch2"
     inkscape:swatch="solid"
     inkscape:pinned="true"><stop
       style="stop-color:#007744;stop-opacity:1;"
       offset="0"
       id="stop2" /></linearGradient><linearGradient
     inkscape:collect="always"
     xlink:href="#swatch2"
     id="linearGradient2"
     x1="0.65375"
     y1="321.74813"
     x2="381.162"
     y2="321.74813"
     gradientUnits="userSpaceOnUse"
     gradientTransform="matrix(0.9674667,0,0,0.96746636,6.2547123,10.42383)" /><linearGradient
     inkscape:collect="always"
     xlink:href="#swatch3"
     id="linearGradient3"
     x1="0.15694842"
     y1="321.64292"
     x2="381.86941"
     y2="321.64292"
     gradientUnits="userSpaceOnUse"
     gradientTransform="matrix(0.9674667,0,0,0.96746636,6.2547123,10.42383)" /><linearGradient
     inkscape:collect="always"
     xlink:href="#linearGradient15"
     id="linearGradient16"
     x1="210.692"
     y1="150.32428"
     x2="511.34539"
     y2="150.32428"
     gradientUnits="userSpaceOnUse" /></defs><sodipodi:namedview
   id="namedview2"
   pagecolor="#505050"
   bordercolor="#eeeeee"
   borderopacity="1"
   inkscape:showpageshadow="0"
   inkscape:pageopacity="0"
   inkscape:pagecheckerboard="0"
   inkscape:deskcolor="#505050"
   inkscape:zoom="0.6956163"
   inkscape:cx="337.82992"
   inkscape:cy="407.55227"
   inkscape:window-width="1920"
   inkscape:window-height="1009"
   inkscape:window-x="1912"
   inkscape:window-y="-8"
   inkscape:window-maximized="1"
   inkscape:current-layer="_x32_" />





<g
   id="g2"
   transform="rotate(180,256.04011,255.99941)"> <path
   class="st0"
   d="m 165.69613,156.67282 c -13.96829,13.9528 -20.74055,44.08067 -6.34949,77.38183 15.29855,35.37347 6.75679,51.57853 -5.56293,65.2585 -11.77601,13.04532 -112.135196,99.75449 -131.999222,119.61754 -19.863059,19.87854 -19.863059,52.07678 0,71.93984 19.863058,19.86305 52.062285,19.86305 71.925344,0 C 113.57289,471.00747 199.51102,373.2479 213.32838,358.87232 c 12.75895,-13.27267 29.90053,-20.86148 65.25853,-5.56293 33.31762,14.39106 63.43002,7.60331 77.38186,-6.364 L 375.01625,327.92887 184.71265,137.64082 Z M 71.110777,468.25697 c -7.376933,7.37693 -19.349334,7.37693 -26.726267,0 -7.376934,-7.37693 -7.376934,-19.33385 0,-26.71078 7.376933,-7.37693 19.349334,-7.37693 26.726267,0 7.376934,7.37693 7.376934,19.33385 0,26.71078 z"
   id="path1"
   style="fill:url(#linearGradient3);stroke:url(#linearGradient2);stroke-width:12.3836;stroke-linecap:butt;stroke-linejoin:miter;stroke-dasharray:none;paint-order:markers fill stroke" /> <path
   class="st0"
   d="M 501.068,159.635 410.63,69.182 c -3.422,-3.422 -8.766,-4.063 -12.891,-1.531 l -46.75,28.438 27.797,-47.656 c 2.406,-4.125 1.734,-9.359 -1.641,-12.734 L 351.709,10.26 c -7.141,-7.141 -17,-10.844 -27.063,-10.188 -10.078,0.656 -19.375,5.625 -25.516,13.625 l -88.438,115.188 171.766,171.766 115.188,-88.438 c 7.984,-6.141 12.953,-15.453 13.625,-25.516 0.657,-10.077 -3.062,-19.937 -10.203,-27.062 z"
   id="path2"
   style="fill:url(#linearGradient16);fill-opacity:1;stroke:none;stroke-opacity:1" /> </g>

</svg>
