<?xml version="1.0" encoding="UTF-8" standalone="no"?>
<!-- Uploaded to: SVG Repo, www.svgrepo.com, Generator: SVG Repo Mixer Tools -->

<svg
   width="200"
   height="200"
   viewBox="0 0 8 8"
   version="1.1"
   id="svg1"
   sodipodi:docname="image-picture-svgrepo-com.svg"
   inkscape:version="1.3.2 (091e20e, 2023-11-25, custom)"
   xmlns:inkscape="http://www.inkscape.org/namespaces/inkscape"
   xmlns:sodipodi="http://sodipodi.sourceforge.net/DTD/sodipodi-0.dtd"
   xmlns="http://www.w3.org/2000/svg"
   xmlns:svg="http://www.w3.org/2000/svg"
   xmlns:rdf="http://www.w3.org/1999/02/22-rdf-syntax-ns#"
   xmlns:cc="http://creativecommons.org/ns#"
   xmlns:dc="http://purl.org/dc/elements/1.1/"
   xmlns:sketch="http://www.bohemiancoding.com/sketch/ns">
  <sodipodi:namedview
     id="namedview1"
     pagecolor="#505050"
     bordercolor="#eeeeee"
     borderopacity="1"
     inkscape:showpageshadow="0"
     inkscape:pageopacity="0"
     inkscape:pagecheckerboard="0"
     inkscape:deskcolor="#505050"
     showgrid="false"
     inkscape:zoom="2.8284271"
     inkscape:cx="103.9447"
     inkscape:cy="91.747105"
     inkscape:window-width="1920"
     inkscape:window-height="1009"
     inkscape:window-x="-8"
     inkscape:window-y="-8"
     inkscape:window-maximized="1"
     inkscape:current-layer="Page-1" />
  <title
     id="title1">image-picture</title>
  <desc
     id="desc1">Created with Sketch Beta.</desc>
  <defs
     id="defs1" />
  <g
     id="Page-1"
     stroke="none"
     stroke-width="1"
     fill="none"
     fill-rule="evenodd"
     sketch:type="MSPage"
     transform="matrix(0.21729631,0,0,0.22083185,0,0.93338095)">
    <path
       d="m 12.751005,5.9014225 c -1.104,0 -2,-0.896 -2,-2 0,-1.104 0.896,-2 2,-2 1.104,0 2,0.896 2,2 0,1.104 -0.896,2 -2,2 z m 0,-6 c -2.209,0 -3.9999998,1.791 -3.9999998,4 0,2.209 1.7909998,4.0000001 3.9999998,4.0000001 2.209,0 4,-1.7910001 4,-4.0000001 0,-2.209 -1.791,-4 -4,-4 z m 22,13.1280005 -6,-6.1280005 -9.941,10.1110005 -4.059,-4.111 -7.9999998,7.337 V -0.0985775 c 0,-1.104 0.896,-2 2,-2 H 32.751005 c 1.104,0 2,0.896 2,2 z m 0,10.872 c 0,1.104 -0.896,2 -2,2 h -5.168 l -7.368,-7.465 8.536,-8.5359995 6,5.9999995 z m -25.9999998,2 c -1.104,0 -2,-0.896 -2,-2 v -0.939 l 7.9449998,-7.116 10.056,10.055 z M 32.751005,-4.0985775 H 8.7510052 c -2.209,0 -4,1.791 -4,4 V 23.901423 c 0,2.209 1.791,4 4,4 H 32.751005 c 2.209,0 4,-1.791 4,-4 V -0.0985775 c 0,-2.209 -1.791,-4 -4,-4 z"
       id="path14"
       sketch:type="MSShapeGroup"
       style="fill:#007744;fill-opacity:1;stroke:#007744;stroke-width:0;stroke-linecap:butt;stroke-linejoin:bevel;stroke-miterlimit:2.7;stroke-dasharray:none;stroke-opacity:1" />
    <g
       id="Icon-Set"
       sketch:type="MSLayerGroup"
       transform="translate(-359.47934,-99.576363)"
       fill="#000000"
       style="display:inline;fill:#007744;fill-opacity:1;stroke:#007744;stroke-width:1.00002;stroke-dasharray:none;stroke-opacity:1">
      <path
         d="m 368,109 c -1.104,0 -2,-0.896 -2,-2 0,-1.104 0.896,-2 2,-2 1.104,0 2,0.896 2,2 0,1.104 -0.896,2 -2,2 z m 0,-6 c -2.209,0 -4,1.791 -4,4 0,2.209 1.791,4 4,4 2.209,0 4,-1.791 4,-4 0,-2.209 -1.791,-4 -4,-4 z M 390,116.128 384,110 374.059,120.111 370,116 l -8,7.337 V 103 c 0,-1.104 0.896,-2 2,-2 h 24 c 1.104,0 2,0.896 2,2 z M 390,127 c 0,1.104 -0.896,2 -2,2 h -5.168 l -7.368,-7.465 8.536,-8.536 6,6 z m -26,2 c -1.104,0 -2,-0.896 -2,-2 v -0.939 l 7.945,-7.116 10.056,10.055 z m 24,-30 h -24 c -2.209,0 -4,1.791 -4,4 v 24 c 0,2.209 1.791,4 4,4 h 24 c 2.209,0 4,-1.791 4,-4 v -24 c 0,-2.209 -1.791,-4 -4,-4 z"
         id="image-picture"
         sketch:type="MSShapeGroup"
         style="fill:#007744;fill-opacity:1;stroke:#007744;stroke-width:1.00002;stroke-dasharray:none;stroke-opacity:1" />
      <g
         id="g13">
        <path
           style="fill:#a0a0a0;stroke:none;stroke-width:0.353553"
           d="m 13.872517,96.786075 0.09284,-54.122099 1.070534,-1.523125 c 0.588793,-0.837718 1.755949,-2.004864 2.593678,-2.593658 l 1.523144,-1.070534 67.193455,-0.092 67.193462,-0.092 1.87129,0.856709 c 2.08197,0.953158 3.80901,2.983939 4.39809,5.171594 0.22794,0.846498 0.32215,13.078886 0.26412,34.291309 l -0.0902,32.975409 -14.60863,-15.165536 c -8.03474,-8.341042 -14.73442,-15.211139 -14.88816,-15.266887 -0.15375,-0.05575 -12.32332,12.353972 -27.04349,27.577163 -14.720173,15.22319 -26.873733,27.71531 -27.007914,27.76026 -0.13418,0.045 -5.084578,-4.92689 -11.000884,-11.04854 -5.916306,-6.12165 -10.860538,-11.13028 -10.987177,-11.13028 -0.12664,0 -8.98462,8.15383 -19.684401,18.11961 -10.699782,9.96579 -19.798046,18.42451 -20.218365,18.79716 l -0.764216,0.67754 z m 34.741074,-4.860546 c 8.764596,-1.828811 16.28154,-9.153016 18.584803,-18.108276 0.973216,-3.783947 0.959947,-9.241782 -0.03111,-12.791484 -1.775594,-6.359758 -5.38733,-11.262521 -10.941176,-14.852146 -3.43428,-2.219681 -6.90074,-3.247159 -11.678385,-3.461535 -4.975245,-0.223244 -7.710274,0.333962 -12.020815,2.448993 -2.433309,1.193939 -3.613919,2.083263 -6.203894,4.673238 -2.601415,2.601415 -3.472303,3.759836 -4.664017,6.203893 -1.977474,4.055551 -2.65153,6.857156 -2.679508,11.136932 -0.03666,5.608057 1.20331,9.826525 4.230016,14.390815 3.252094,4.904178 9.393161,9.144648 14.974257,10.339884 3.036148,0.650213 7.368823,0.658391 10.429825,0.01969 z"
           id="path1"
           transform="matrix(0.18408044,0,0,0.18113329,360,94.773341)" />
        <path
           style="fill:#a0a0a0;stroke:none;stroke-width:0.353553"
           d="M 106.77262,167.00287 C 96.564041,156.47423 88.2358,147.78793 88.265414,147.69998 c 0.02961,-0.088 2.897957,-3.04806 6.374096,-6.57802 3.476139,-3.52997 12.93675,-13.14814 21.02359,-21.37372 l 14.70333,-14.9556 14.89663,15.12282 14.89663,15.12283 v 21.7773 c 0,24.61527 0.0329,24.26441 -2.51647,26.8138 -2.43099,2.43098 -3.06531,2.51647 -18.67303,2.51647 h -13.63653 z"
           id="path2"
           transform="matrix(0.18408044,0,0,0.18113329,360,94.773341)" />
        <path
           style="fill:#a0a0a0;stroke:none;stroke-width:0.353553"
           d="m 40.305087,74.919977 c -5.056896,-2.190388 -6.352704,-8.86338 -2.5229,-12.992125 3.025132,-3.261263 8.336096,-3.261263 11.431367,0 3.785993,3.989026 2.298079,10.943386 -2.798316,13.079044 -1.497974,0.62773 -4.560849,0.58416 -6.110151,-0.08692 z"
           id="path3"
           transform="matrix(0.18408044,0,0,0.18113329,360,94.773341)" />
        <path
           style="fill:#00ffaa;fill-opacity:1;stroke:none;stroke-width:0.353553"
           d="m 19.842567,185.79161 c -2.0309,-0.47951 -4.024887,-2.13503 -5.081713,-4.21914 -0.822548,-1.6221 -0.972272,-2.35785 -0.972272,-4.77776 v -2.8604 l 2.769406,-2.46789 c 1.523173,-1.35735 10.54099,-9.54781 20.039592,-18.20103 9.498602,-8.65321 17.287595,-15.73312 17.308875,-15.73312 0.147393,0 47.563365,48.27349 47.563365,48.42354 0,0.30691 -80.316184,0.14534 -81.627253,-0.1642 z"
           id="path4"
           transform="matrix(0.18408044,0,0,0.18113329,360,94.773341)" />
        <path
           style="fill:#00ffaa;fill-opacity:1;stroke:none;stroke-width:0.353553"
           d="m 111.54665,171.6082 c -7.77786,-8.04677 -15.872371,-16.41384 -17.987791,-18.59349 -2.11542,-2.17965 -4.085394,-4.30447 -4.377719,-4.72182 -0.59939,-0.85575 -2.778693,1.51212 18.68938,-20.30656 5.73989,-5.83363 13.12158,-13.35426 16.40375,-16.7125 3.28216,-3.35824 6.05671,-6.06292 6.16564,-6.0104 0.10894,0.0525 6.86296,6.85356 15.00894,15.11342 l 14.81086,15.01795 -0.24031,21.39805 c -0.13218,11.76893 -0.3987,22.20481 -0.59226,23.19085 -0.4687,2.38758 -2.91388,4.89592 -5.27786,5.41419 -0.87505,0.19183 -7.63675,0.4595 -15.02602,0.5948 l -13.43503,0.246 z"
           id="path5"
           transform="matrix(0.18408044,0,0,0.18113329,360,94.773341)" />
        <path
           style="fill:#00ffaa;fill-opacity:1;stroke:none;stroke-width:0.353553"
           d="m 14.074786,96.587148 0.109427,-53.807188 0.941129,-1.369404 c 0.517621,-0.753172 1.626839,-1.892983 2.464929,-2.532913 l 1.523802,-1.163509 67.075661,-0.137481 67.075656,-0.137481 2.12133,1.108799 c 1.38952,0.726294 2.48722,1.627482 3.18198,2.61235 l 1.06066,1.50355 0.0796,33.645619 0.0796,33.64561 -9.08055,-9.36916 C 145.7137,95.432899 139.11551,88.67119 136.04535,85.559921 l -5.58212,-5.656855 -7.35487,7.424622 c -4.04517,4.083541 -12.59712,12.833992 -19.00432,19.445432 -6.407196,6.61145 -14.979911,15.44145 -19.050477,19.62222 -4.070566,4.18077 -7.659458,7.8845 -7.975316,8.23051 -0.672165,0.73634 -0.195335,1.17365 -13.907822,-12.75498 -4.633324,-4.70635 -8.577056,-8.55701 -8.763849,-8.55701 -0.367307,0 -1.454646,0.99161 -23.997371,21.88459 -8.266249,7.66129 -15.347741,14.21454 -15.736649,14.56276 -0.706833,0.63288 -0.707065,0.61225 -0.59768,-53.174062 z m 35.260019,-4.666781 c 1.158969,-0.293615 3.459555,-1.195339 5.112417,-2.003831 4.229422,-2.068807 8.746801,-6.591564 10.884396,-10.897353 2.013967,-4.056753 2.633658,-6.752092 2.640987,-11.486887 0.0072,-4.662804 -0.604594,-7.375738 -2.552224,-11.317307 -1.86201,-3.768295 -4.056615,-6.461561 -7.182027,-8.813933 -4.648283,-3.498581 -8.695066,-4.781151 -15.118947,-4.791733 -6.795616,-0.0112 -11.33379,1.834562 -16.313462,6.63498 -3.358588,3.237688 -4.934243,5.528877 -6.453487,9.384135 -1.918898,4.869427 -2.009233,11.837887 -0.222224,17.14254 2.53436,7.523132 9.521178,14.013814 17.346425,16.114649 2.614985,0.702041 9.14859,0.721182 11.858146,0.03474 z"
           id="path6"
           transform="matrix(0.18408044,0,0,0.18113329,360,94.773341)" />
        <path
           style="fill:#a0a0a0;stroke:none;stroke-width:0.353553"
           d="M 108.05495,167.69947 C 98.213654,157.5245 89.912277,148.84087 89.607447,148.4025 c -0.541093,-0.77813 -0.411361,-0.94579 5.47124,-7.07107 3.314012,-3.45072 12.591033,-12.92625 20.615603,-21.05673 l 14.59013,-14.78269 14.93864,14.96202 14.93864,14.96202 -0.35729,22.02405 c -0.38758,23.89033 -0.34751,23.46257 -2.40352,25.65813 -1.89949,2.02842 -3.02473,2.26762 -11.73689,2.49499 -4.37523,0.11418 -10.60114,0.29729 -13.83537,0.40689 l -5.88041,0.19929 z"
           id="path7"
           transform="matrix(0.18408044,0,0,0.18113329,360,94.773341)" />
        <path
           style="fill:#a0a0a0;stroke:none;stroke-width:0.353553"
           d="m 19.445436,185.53518 c -1.523164,-0.57815 -3.487021,-2.33509 -4.319242,-3.86416 -0.750244,-1.37844 -0.95612,-2.28804 -1.047321,-4.62721 l -0.113514,-2.91151 19.975767,-18.18918 19.975766,-18.18918 3.729327,3.77825 c 12.695544,12.8621 40.411315,41.17268 41.686112,42.58074 l 1.520439,1.67938 -40.4385,-0.0279 c -22.241177,-0.0153 -40.677152,-0.11849 -40.968834,-0.22921 z"
           id="path8"
           transform="matrix(0.18408044,0,0,0.18113329,360,94.773341)" />
        <path
           style="fill:#a0a0a0;stroke:none;stroke-width:0.353553"
           d="m 40.12831,74.57609 c -2.651205,-1.373892 -4.423991,-4.263831 -4.415964,-7.198762 0.0019,-0.694564 0.379124,-2.069614 0.838275,-3.055665 2.359292,-5.066698 8.358871,-6.18759 12.256583,-2.289879 1.255785,1.255785 1.752261,2.08414 2.088041,3.483827 0.822616,3.429047 -0.891434,7.386478 -3.85382,8.897775 -1.73986,0.88761 -5.350288,0.972584 -6.913115,0.162704 z"
           id="path9"
           transform="matrix(0.18408044,0,0,0.18113329,360,94.773341)" />
        <path
           style="fill:#fca300;fill-opacity:1;stroke:none;stroke-width:0.353553"
           d="m 40.022415,74.539076 c -1.550908,-0.76434 -3.395485,-2.967619 -3.903203,-4.662233 -0.612018,-2.042731 -0.496355,-3.562772 0.420994,-5.532699 1.66874,-3.583476 4.921657,-5.257018 8.612678,-4.431004 2.710294,0.606537 5.10414,2.942066 5.742361,5.602471 0.822616,3.429047 -0.891434,7.386478 -3.85382,8.897775 -1.75959,0.897676 -5.32311,0.961488 -7.01901,0.12569 z"
           id="path10"
           transform="matrix(0.18408044,0,0,0.18113329,360,94.773341)" />
        <path
           style="fill:#a0a0a0;stroke:none;stroke-width:0.353553"
           d="M 37.55286,91.386958 C 27.777106,88.825718 20.708716,80.607253 19.371369,70.247211 17.92369,59.032458 25.114215,47.720446 36.062446,43.989091 c 3.256484,-1.109869 9.344999,-1.348449 12.828086,-0.502673 8.887407,2.158073 15.806995,9.100163 18.149629,18.208649 0.773844,3.008811 0.777535,8.63457 0.0077,11.667262 C 63.699442,86.552221 50.31608,94.730912 37.55286,91.386958 Z m 9.039155,-16.098004 c 3.091829,-1.289563 5.011251,-4.261916 5.011251,-7.760256 0,-4.902694 -3.383358,-8.282844 -8.308616,-8.30074 -7.242248,-0.02632 -10.785666,9.026936 -5.588369,14.277994 2.169177,2.191615 6.042576,2.968847 8.885734,1.783002 z"
           id="path11"
           transform="matrix(0.18408044,0,0,0.18113329,360,94.773341)" />
        <path
           style="fill:#ffa000;fill-opacity:1;stroke:none;stroke-width:0.353553"
           d="M 40.023997,91.707751 C 31.189086,90.388792 23.739837,83.953271 20.630395,74.953319 19.751471,72.409366 19.65306,71.64484 19.651927,67.351921 c -0.0011,-4.265219 0.09765,-5.047806 0.928516,-7.356473 2.606821,-7.243386 7.74505,-12.623577 14.853106,-15.552543 1.924809,-0.793143 2.866689,-0.934565 7.085806,-1.063921 4.479294,-0.137334 5.097315,-0.07664 7.778175,0.763908 10.927954,3.426302 18.027395,14.039613 17.062194,25.507126 -1.138301,13.524103 -14.152851,24.025798 -27.335727,22.057733 z m 6.744795,-16.347302 c 3.149536,-1.319822 4.854611,-4.107347 4.842238,-7.916287 -0.01684,-5.185298 -3.060079,-8.234177 -8.200995,-8.216204 -4.030268,0.01409 -6.802961,2.075813 -7.909197,5.881135 -1.647339,5.666646 2.051255,10.676866 7.909197,10.714022 1.221585,0.0077 2.733026,-0.200452 3.358757,-0.462666 z"
           id="path12"
           transform="matrix(0.18408044,0,0,0.18113329,360,94.773341)" />
        <path
           style="fill:#ff0000;fill-opacity:1;stroke:none;stroke-width:0.25"
           d="M 41.962125,74.851013 C 37.80322,74.395361 34.90276,69.446079 36.335581,65.25 c 1.191533,-3.489454 4.091578,-5.55045 7.501648,-5.33125 4.784448,0.307545 8.136355,4.979284 6.820408,9.505981 -1.180559,4.060983 -4.164014,5.922756 -8.695512,5.426282 z"
           id="path13"
           transform="matrix(0.18408044,0,0,0.18113329,360,94.773341)" />
      </g>
    </g>
    <path
       style="fill:#a0a0a0;stroke:none;stroke-width:0.353553"
       d="m 179.60512,134.09022 v -31.90309 l 4.5962,4.58599 4.59619,4.586 -0.003,21.57185 c -0.002,13.14858 -0.14538,22.45137 -0.36815,23.82427 -0.44516,2.74346 -1.25189,4.38552 -3.04168,6.19121 -1.27314,1.28446 -4.34462,3.03565 -5.33795,3.04341 -0.35031,0.003 -0.44194,-6.61102 -0.44194,-31.89964 z"
       id="path15"
       transform="matrix(0.18408044,0,0,0.18113329,0,-4.2266591)" />
    <path
       style="fill:#00ffaa;stroke:none;stroke-width:0.353553;fill-opacity:1"
       d="m 184.11293,90.160785 -4.50781,-4.717272 -0.003,-22.392438 c -0.002,-13.566042 -0.14527,-23.27122 -0.36445,-24.6219 -1.60237,-9.874415 -8.50287,-17.640978 -18.19443,-20.47796 -1.9755,-0.578283 -6.2644,-0.633331 -62.392776,-0.80081 L 38.379338,16.970563 39.727393,15.47849 c 0.741431,-0.820639 2.248642,-1.934333 3.34936,-2.474873 l 2.001304,-0.982802 h 67.528693 c 55.3451,0 67.76882,0.08498 68.85957,0.471026 2.40795,0.852229 4.68919,2.991833 5.97572,5.604725 l 1.17869,2.393858 0.10057,32.35797 c 0.0553,17.796887 0.0553,34.534105 0,37.19382 l -0.10057,4.835847 z"
       id="path16"
       transform="matrix(0.18408044,0,0,0.18113329,0,-4.2266591)" />
  </g>
  <metadata
     id="metadata1">
    <rdf:RDF>
      <cc:Work
         rdf:about="">
        <dc:title>image-picture</dc:title>
      </cc:Work>
    </rdf:RDF>
  </metadata>
</svg>
