<?xml version="1.0" encoding="UTF-8" standalone="no"?>
<svg
   id="Layer_2"
   data-name="Layer 2"
   viewBox="0 0 376 323.48"
   version="1.1"
   sodipodi:docname="ZX-dark.svg"
   inkscape:version="1.3.2 (091e20e, 2023-11-25, custom)"
   xmlns:inkscape="http://www.inkscape.org/namespaces/inkscape"
   xmlns:sodipodi="http://sodipodi.sourceforge.net/DTD/sodipodi-0.dtd"
   xmlns:xlink="http://www.w3.org/1999/xlink"
   xmlns="http://www.w3.org/2000/svg"
   xmlns:svg="http://www.w3.org/2000/svg">
  <defs
     id="defs41">
    <linearGradient
       id="linearGradient43"
       inkscape:collect="always">
      <stop
         style="stop-color:#000000;stop-opacity:1;"
         offset="0"
         id="stop43" />
      <stop
         style="stop-color:#000000;stop-opacity:0;"
         offset="1"
         id="stop44" />
    </linearGradient>
    <linearGradient
       id="linearGradient41"
       inkscape:collect="always">
      <stop
         style="stop-color:#005aaa;stop-opacity:0.5;"
         offset="0"
         id="stop41" />
      <stop
         style="stop-color:#00ff96;stop-opacity:0.5;"
         offset="1"
         id="stop42" />
    </linearGradient>
    <linearGradient
       inkscape:collect="always"
       xlink:href="#linearGradient41"
       id="linearGradient42"
       x1="1.7578125"
       y1="152.32695"
       x2="369.70117"
       y2="152.32695"
       gradientUnits="userSpaceOnUse"
       spreadMethod="reflect" />
    <radialGradient
       inkscape:collect="always"
       xlink:href="#linearGradient43"
       id="radialGradient44"
       cx="185.72949"
       cy="152.32695"
       fx="185.72949"
       fy="152.32695"
       r="183.97168"
       gradientTransform="matrix(1,0,0,0.60626264,0,59.976812)"
       gradientUnits="userSpaceOnUse" />
  </defs>
  <sodipodi:namedview
     id="namedview41"
     pagecolor="#505050"
     bordercolor="#eeeeee"
     borderopacity="1"
     inkscape:showpageshadow="0"
     inkscape:pageopacity="0"
     inkscape:pagecheckerboard="0"
     inkscape:deskcolor="#505050"
     inkscape:zoom="1.7203321"
     inkscape:cx="139.50795"
     inkscape:cy="155.49324"
     inkscape:window-width="1920"
     inkscape:window-height="1009"
     inkscape:window-x="1912"
     inkscape:window-y="-8"
     inkscape:window-maximized="1"
     inkscape:current-layer="Layer_1-2" />
  <g
     id="Layer_1-2"
     data-name="Layer 1">
    <g
       id="g41"
       style="fill:url(#linearGradient42);stroke:#000000;stroke-opacity:1">
      <text
         transform="translate(133.56 190.18)"
         fill="#fff"
         font-family="ArialRoundedMTBold, 'Arial Rounded MT Bold'"
         font-size="87.1"
         stroke="#000"
         stroke-miterlimit="10"
         id="text1"
         style="fill:url(#linearGradient42);stroke:#000000;stroke-opacity:1"><tspan
           x="0"
           y="0"
           id="tspan1"
           style="fill:url(#linearGradient42);stroke:#000000;stroke-opacity:1">ZX</tspan></text>
      <g
         id="g2"
         style="fill:url(#linearGradient42);stroke:#000000;stroke-opacity:1">
        <path
           d="M132.97,177.25l35.75-42.78h-30.72c-2.15,0-3.77-.48-4.87-1.42-1.09-.95-1.64-2.2-1.64-3.75s.55-2.92,1.64-3.92c1.09-1,2.71-1.5,4.87-1.5h39.6c5.13,0,7.69,2.39,7.69,7.17,0,2.28-.43,4.1-1.28,5.46-.85,1.36-2.58,3.56-5.18,6.6l-33.43,39.79h36.85c2.18,0,3.81.45,4.89,1.35,1.08.9,1.61,2.16,1.61,3.77s-.54,3.01-1.61,3.99c-1.08.98-2.71,1.47-4.89,1.47h-45.2c-3.07,0-5.38-.69-6.93-2.07-1.55-1.38-2.33-3.22-2.33-5.53,0-.79.13-1.52.38-2.18.25-.66.59-1.29,1.02-1.88.43-.59,1.02-1.33,1.78-2.23.76-.9,1.42-1.69,1.99-2.35Z"
           fill="#fff"
           stroke="#000"
           stroke-miterlimit="10"
           id="path1"
           style="fill:url(#linearGradient42);stroke:#000000;stroke-opacity:1" />
        <path
           d="M195.08,179.96l15.57-22.74-13.11-20.23c-1.23-1.96-2.16-3.65-2.78-5.06-.62-1.41-.93-2.76-.93-4.06s.59-2.52,1.78-3.58c1.19-1.06,2.64-1.59,4.34-1.59,1.96,0,3.49.58,4.58,1.73,1.09,1.16,2.6,3.3,4.53,6.43l10.45,16.9,11.16-16.9c.92-1.42,1.7-2.64,2.35-3.66.65-1.01,1.27-1.85,1.88-2.52.6-.66,1.27-1.16,2.02-1.5.74-.33,1.61-.5,2.59-.5,1.77,0,3.22.53,4.34,1.59,1.12,1.06,1.69,2.32,1.69,3.77,0,2.12-1.22,5-3.66,8.64l-13.72,20.51,14.77,22.74c1.33,1.99,2.29,3.65,2.9,4.96.6,1.31.9,2.56.9,3.73,0,1.11-.27,2.12-.81,3.04-.54.92-1.3,1.65-2.28,2.18-.98.54-2.09.81-3.32.81-1.33,0-2.45-.28-3.37-.83-.92-.55-1.66-1.24-2.23-2.07-.57-.82-1.63-2.42-3.18-4.8l-12.25-19.28-13.01,19.85c-1.01,1.58-1.73,2.69-2.16,3.32-.43.63-.94,1.25-1.54,1.85s-1.31,1.08-2.14,1.42c-.82.35-1.79.52-2.9.52-1.71,0-3.13-.52-4.25-1.57-1.12-1.05-1.69-2.56-1.69-4.56,0-2.34,1.16-5.21,3.47-8.59Z"
           fill="#fff"
           stroke="#000"
           stroke-miterlimit="10"
           id="path2"
           style="fill:url(#linearGradient42);stroke:#000000;stroke-opacity:1" />
      </g>
      <g
         id="g4"
         style="fill:url(#linearGradient42);stroke:#000000;stroke-opacity:1">
        <path
           d="M127.23,178.87l39.48-47.24h-33.92c-2.38,0-4.17-.52-5.37-1.57-1.21-1.05-1.81-2.43-1.81-4.14s.6-3.22,1.81-4.33c1.21-1.1,3-1.65,5.37-1.65h43.73c5.66,0,8.49,2.64,8.49,7.92,0,2.52-.47,4.53-1.41,6.03-.94,1.5-2.85,3.93-5.72,7.29l-36.91,43.94h40.69c2.41,0,4.21.5,5.4,1.49,1.19,1,1.78,2.39,1.78,4.17s-.59,3.32-1.78,4.4c-1.19,1.08-2.99,1.63-5.4,1.63h-49.92c-3.39,0-5.94-.76-7.65-2.28-1.71-1.52-2.57-3.56-2.57-6.11,0-.87.14-1.68.42-2.41.28-.73.66-1.42,1.13-2.07.47-.65,1.13-1.47,1.97-2.46.84-1,1.57-1.86,2.2-2.6Z"
           fill="#fff"
           stroke="#000"
           stroke-miterlimit="10"
           id="path3"
           style="fill:url(#linearGradient42);stroke:#000000;stroke-opacity:1" />
        <path
           d="M195.81,181.86l17.2-25.12-14.47-22.34c-1.36-2.17-2.39-4.03-3.07-5.58-.68-1.55-1.02-3.05-1.02-4.48s.66-2.79,1.97-3.96c1.31-1.17,2.91-1.76,4.8-1.76,2.17,0,3.85.64,5.06,1.91,1.21,1.28,2.87,3.64,5.01,7.11l11.54,18.67,12.32-18.67c1.01-1.57,1.88-2.92,2.6-4.04.72-1.12,1.41-2.04,2.07-2.78.66-.73,1.41-1.28,2.23-1.65.82-.37,1.77-.55,2.86-.55,1.96,0,3.56.59,4.8,1.76,1.24,1.17,1.86,2.56,1.86,4.17,0,2.34-1.35,5.52-4.04,9.54l-15.15,22.65,16.31,25.12c1.47,2.2,2.53,4.03,3.2,5.48.66,1.45,1,2.82,1,4.12,0,1.22-.3,2.34-.89,3.36-.59,1.01-1.43,1.82-2.52,2.41-1.08.59-2.31.89-3.67.89-1.47,0-2.71-.31-3.72-.92-1.01-.61-1.84-1.37-2.46-2.28-.63-.91-1.8-2.67-3.51-5.3l-13.53-21.29-14.37,21.92c-1.12,1.75-1.91,2.97-2.39,3.67-.47.7-1.04,1.38-1.7,2.04s-1.45,1.19-2.36,1.57c-.91.38-1.98.58-3.2.58-1.89,0-3.45-.58-4.69-1.73-1.24-1.15-1.86-2.83-1.86-5.03,0-2.59,1.28-5.75,3.83-9.49Z"
           fill="#fff"
           stroke="#000"
           stroke-miterlimit="10"
           id="path4"
           style="fill:url(#linearGradient42);stroke:#000000;stroke-opacity:1" />
      </g>
      <g
         id="g6"
         style="fill:url(#linearGradient42);stroke:#000000;stroke-opacity:1">
        <path
           d="M121.49,180.49l43.21-51.7h-37.13c-2.6,0-4.56-.57-5.88-1.72-1.32-1.15-1.98-2.66-1.98-4.53s.66-3.53,1.98-4.73c1.32-1.2,3.28-1.81,5.88-1.81h47.86c6.2,0,9.3,2.89,9.3,8.67,0,2.75-.52,4.95-1.55,6.6-1.03,1.65-3.12,4.3-6.26,7.98l-40.4,48.09h44.53c2.64,0,4.61.55,5.91,1.64,1.3,1.09,1.95,2.61,1.95,4.56s-.65,3.64-1.95,4.82c-1.3,1.19-3.27,1.78-5.91,1.78h-54.63c-3.71,0-6.5-.83-8.38-2.5-1.87-1.66-2.81-3.89-2.81-6.68,0-.96.15-1.84.46-2.64.31-.8.72-1.56,1.23-2.27.52-.71,1.23-1.61,2.15-2.7.92-1.09,1.72-2.04,2.41-2.84Z"
           fill="#fff"
           stroke="#000"
           stroke-miterlimit="10"
           id="path5"
           style="fill:url(#linearGradient42);stroke:#000000;stroke-opacity:1" />
        <path
           d="M196.55,183.76l18.82-27.49-15.84-24.44c-1.49-2.37-2.61-4.41-3.36-6.11-.75-1.7-1.12-3.34-1.12-4.91s.72-3.05,2.15-4.33c1.43-1.28,3.19-1.92,5.25-1.92,2.37,0,4.22.7,5.54,2.09,1.32,1.4,3.15,3.99,5.48,7.78l12.62,20.43,13.48-20.43c1.11-1.72,2.06-3.19,2.84-4.42.78-1.22,1.54-2.24,2.27-3.04.73-.8,1.54-1.41,2.44-1.81.9-.4,1.94-.6,3.13-.6,2.14,0,3.89.64,5.25,1.92,1.36,1.28,2.04,2.8,2.04,4.56,0,2.56-1.47,6.04-4.42,10.44l-16.58,24.79,17.85,27.49c1.61,2.41,2.77,4.41,3.5,6,.73,1.59,1.09,3.09,1.09,4.5,0,1.34-.33,2.56-.98,3.67-.65,1.11-1.57,1.99-2.75,2.64-1.19.65-2.53.98-4.02.98-1.61,0-2.97-.34-4.07-1-1.11-.67-2.01-1.5-2.7-2.5-.69-.99-1.97-2.93-3.84-5.8l-14.8-23.3-15.72,23.99c-1.23,1.91-2.09,3.25-2.61,4.02-.52.77-1.14,1.51-1.86,2.24s-1.59,1.3-2.58,1.72c-.99.42-2.16.63-3.5.63-2.07,0-3.78-.63-5.14-1.89-1.36-1.26-2.04-3.1-2.04-5.51,0-2.83,1.4-6.29,4.19-10.39Z"
           fill="#fff"
           stroke="#000"
           stroke-miterlimit="10"
           id="path6"
           style="fill:url(#linearGradient42);stroke:#000000;stroke-opacity:1" />
      </g>
      <g
         id="g8"
         style="fill:url(#linearGradient42);stroke:#000000;stroke-opacity:1">
        <path
           d="M115.76,182.11l46.94-56.16h-40.33c-2.83,0-4.96-.62-6.39-1.87-1.43-1.25-2.15-2.89-2.15-4.92s.72-3.83,2.15-5.14c1.43-1.31,3.56-1.96,6.39-1.96h51.99c6.73,0,10.1,3.14,10.1,9.41,0,2.99-.56,5.38-1.68,7.17-1.12,1.79-3.39,4.68-6.79,8.66l-43.88,52.23h48.37c2.87,0,5.01.59,6.42,1.78,1.41,1.18,2.12,2.84,2.12,4.96s-.71,3.95-2.12,5.24c-1.41,1.29-3.55,1.93-6.42,1.93h-59.34c-4.03,0-7.06-.9-9.1-2.71-2.04-1.81-3.05-4.23-3.05-7.26,0-1.04.17-1.99.5-2.87.33-.87.78-1.69,1.34-2.46.56-.77,1.34-1.75,2.34-2.93,1-1.18,1.87-2.21,2.62-3.09Z"
           fill="#fff"
           stroke="#000"
           stroke-miterlimit="10"
           id="path7"
           style="fill:url(#linearGradient42);stroke:#000000;stroke-opacity:1" />
        <path
           d="M197.29,185.66l20.44-29.86-17.2-26.55c-1.62-2.58-2.84-4.79-3.65-6.64-.81-1.85-1.22-3.62-1.22-5.33s.78-3.31,2.34-4.71c1.56-1.39,3.46-2.09,5.7-2.09,2.58,0,4.58.76,6.02,2.27,1.43,1.52,3.42,4.33,5.95,8.45l13.71,22.19,14.65-22.19c1.2-1.87,2.23-3.47,3.09-4.8.85-1.33,1.67-2.43,2.46-3.3.79-.87,1.67-1.53,2.65-1.96.98-.44,2.11-.65,3.4-.65,2.33,0,4.23.7,5.7,2.09,1.48,1.39,2.21,3.04,2.21,4.96,0,2.78-1.6,6.57-4.8,11.34l-18.01,26.93,19.39,29.86c1.75,2.62,3.01,4.79,3.8,6.51.79,1.72,1.18,3.36,1.18,4.89,0,1.45-.35,2.78-1.06,3.99-.71,1.21-1.7,2.16-2.99,2.87-1.29.71-2.74,1.06-4.36,1.06-1.75,0-3.22-.36-4.43-1.09-1.21-.73-2.18-1.63-2.93-2.71-.75-1.08-2.14-3.18-4.18-6.3l-16.08-25.31-17.08,26.05c-1.33,2.08-2.28,3.53-2.84,4.36-.56.83-1.24,1.64-2.03,2.43s-1.72,1.41-2.81,1.87c-1.08.46-2.35.69-3.8.69-2.24,0-4.1-.69-5.58-2.06-1.48-1.37-2.21-3.37-2.21-5.98,0-3.08,1.52-6.84,4.55-11.28Z"
           fill="#fff"
           stroke="#000"
           stroke-miterlimit="10"
           id="path8"
           style="fill:url(#linearGradient42);stroke:#000000;stroke-opacity:1" />
      </g>
      <g
         id="g10"
         style="fill:url(#linearGradient42);stroke:#000000;stroke-opacity:1">
        <path
           d="M110.02,183.72l50.66-60.62h-43.53c-3.05,0-5.35-.67-6.9-2.02-1.55-1.35-2.32-3.12-2.32-5.32s.77-4.14,2.32-5.55c1.55-1.41,3.85-2.12,6.9-2.12h56.11c7.27,0,10.9,3.39,10.9,10.16,0,3.23-.61,5.81-1.82,7.74-1.21,1.93-3.66,5.05-7.33,9.35l-47.37,56.38h52.21c3.09,0,5.4.64,6.93,1.92,1.52,1.28,2.29,3.06,2.29,5.35s-.76,4.26-2.29,5.65c-1.53,1.39-3.84,2.09-6.93,2.09h-64.05c-4.35,0-7.63-.98-9.82-2.93-2.2-1.95-3.3-4.56-3.3-7.84,0-1.12.18-2.15.54-3.1.36-.94.84-1.83,1.45-2.66.61-.83,1.45-1.88,2.52-3.16,1.08-1.28,2.02-2.39,2.83-3.33Z"
           fill="#fff"
           stroke="#000"
           stroke-miterlimit="10"
           id="path9"
           style="fill:url(#linearGradient42);stroke:#000000;stroke-opacity:1" />
        <path
           d="M198.03,187.56l22.07-32.23-18.57-28.66c-1.75-2.78-3.06-5.17-3.94-7.17-.87-1.99-1.31-3.91-1.31-5.75s.84-3.58,2.52-5.08c1.68-1.5,3.73-2.25,6.16-2.25,2.78,0,4.95.82,6.49,2.46,1.55,1.64,3.69,4.68,6.43,9.12l14.8,23.95,15.81-23.95c1.3-2.02,2.41-3.74,3.33-5.18.92-1.44,1.8-2.62,2.66-3.57.85-.94,1.8-1.65,2.86-2.12,1.05-.47,2.28-.71,3.67-.71,2.51,0,4.56.75,6.16,2.25,1.59,1.5,2.39,3.29,2.39,5.35,0,3.01-1.73,7.09-5.18,12.24l-19.44,29.07,20.92,32.23c1.88,2.83,3.25,5.17,4.1,7.03.85,1.86,1.28,3.62,1.28,5.28,0,1.57-.38,3.01-1.14,4.31-.76,1.3-1.84,2.33-3.23,3.09-1.39.76-2.96,1.14-4.71,1.14-1.88,0-3.48-.39-4.78-1.18-1.3-.78-2.36-1.76-3.16-2.93-.81-1.17-2.31-3.43-4.51-6.8l-17.36-27.32-18.44,28.12c-1.44,2.24-2.46,3.81-3.06,4.71-.61.9-1.34,1.77-2.19,2.62s-1.86,1.52-3.03,2.02c-1.17.49-2.53.74-4.1.74-2.42,0-4.43-.74-6.02-2.22-1.59-1.48-2.39-3.63-2.39-6.46,0-3.32,1.64-7.38,4.91-12.18Z"
           fill="#fff"
           stroke="#000"
           stroke-miterlimit="10"
           id="path10"
           style="fill:url(#linearGradient42);stroke:#000000;stroke-opacity:1" />
      </g>
      <g
         id="g12"
         style="fill:url(#linearGradient42);stroke:#000000;stroke-opacity:1">
        <path
           d="M104.28,185.34l54.39-65.08h-46.73c-3.27,0-5.74-.72-7.4-2.17-1.66-1.44-2.49-3.35-2.49-5.71s.83-4.44,2.49-5.96c1.66-1.52,4.13-2.28,7.4-2.28h60.24c7.8,0,11.7,3.64,11.7,10.91,0,3.47-.65,6.24-1.95,8.31-1.3,2.07-3.93,5.42-7.87,10.04l-50.85,60.53h56.05c3.32,0,5.8.69,7.44,2.06,1.64,1.37,2.46,3.29,2.46,5.74s-.82,4.58-2.46,6.07c-1.64,1.49-4.12,2.24-7.44,2.24h-68.77c-4.67,0-8.19-1.05-10.55-3.14-2.36-2.09-3.54-4.9-3.54-8.41,0-1.2.19-2.31.58-3.32.38-1.01.9-1.96,1.55-2.85.65-.89,1.55-2.02,2.71-3.39,1.16-1.37,2.17-2.56,3.03-3.58Z"
           fill="#fff"
           stroke="#000"
           stroke-miterlimit="10"
           id="path11"
           style="fill:url(#linearGradient42);stroke:#000000;stroke-opacity:1" />
        <path
           d="M198.76,189.46l23.69-34.6-19.94-30.77c-1.88-2.99-3.29-5.55-4.23-7.69-.94-2.14-1.41-4.2-1.41-6.18s.9-3.84,2.71-5.45c1.81-1.61,4.01-2.42,6.61-2.42,2.99,0,5.31.88,6.97,2.64,1.66,1.76,3.96,5.02,6.9,9.79l15.89,25.71,16.97-25.71c1.4-2.17,2.59-4.02,3.58-5.56.99-1.54,1.94-2.82,2.85-3.83.91-1.01,1.94-1.77,3.07-2.28,1.13-.51,2.44-.76,3.94-.76,2.7,0,4.9.81,6.61,2.42,1.71,1.61,2.56,3.53,2.56,5.74,0,3.23-1.85,7.61-5.56,13.15l-20.88,31.2,22.46,34.6c2.02,3.03,3.49,5.55,4.41,7.55.91,2,1.37,3.89,1.37,5.67,0,1.69-.41,3.23-1.23,4.62-.82,1.4-1.98,2.5-3.47,3.32-1.49.82-3.18,1.23-5.06,1.23-2.02,0-3.73-.42-5.13-1.26-1.4-.84-2.53-1.89-3.39-3.14-.87-1.25-2.48-3.68-4.84-7.3l-18.64-29.33-19.79,30.19c-1.54,2.41-2.64,4.09-3.29,5.06-.65.96-1.43,1.9-2.35,2.82s-2,1.64-3.25,2.17c-1.25.53-2.72.79-4.41.79-2.6,0-4.76-.79-6.46-2.38-1.71-1.59-2.56-3.9-2.56-6.93,0-3.56,1.76-7.92,5.27-13.07Z"
           fill="#fff"
           stroke="#000"
           stroke-miterlimit="10"
           id="path12"
           style="fill:url(#linearGradient42);stroke:#000000;stroke-opacity:1" />
      </g>
      <g
         id="g14"
         style="fill:url(#linearGradient42);stroke:#000000;stroke-opacity:1">
        <path
           d="M98.55,186.96l58.12-69.54h-49.94c-3.5,0-6.14-.77-7.91-2.32-1.77-1.54-2.66-3.58-2.66-6.1s.89-4.75,2.66-6.37c1.78-1.62,4.41-2.43,7.91-2.43h64.37c8.34,0,12.5,3.89,12.5,11.65,0,3.7-.69,6.66-2.08,8.88-1.39,2.21-4.19,5.79-8.41,10.73l-54.34,64.68h59.89c3.55,0,6.2.73,7.95,2.2,1.75,1.47,2.62,3.51,2.62,6.14s-.88,4.89-2.62,6.48c-1.75,1.6-4.4,2.39-7.95,2.39h-73.48c-4.99,0-8.75-1.12-11.27-3.36-2.52-2.24-3.78-5.24-3.78-8.99,0-1.29.2-2.47.62-3.55.41-1.08.96-2.1,1.66-3.05.69-.95,1.66-2.16,2.89-3.63,1.23-1.47,2.32-2.74,3.24-3.82Z"
           fill="#fff"
           stroke="#000"
           stroke-miterlimit="10"
           id="path13"
           style="fill:url(#linearGradient42);stroke:#000000;stroke-opacity:1" />
        <path
           d="M199.5,191.36l25.32-36.97-21.3-32.88c-2.01-3.19-3.51-5.93-4.52-8.22-1-2.29-1.5-4.49-1.5-6.6s.97-4.1,2.89-5.83c1.93-1.72,4.28-2.59,7.06-2.59,3.19,0,5.67.94,7.45,2.82,1.78,1.88,4.23,5.36,7.37,10.46l16.98,27.48,18.14-27.48c1.49-2.32,2.76-4.3,3.82-5.94,1.05-1.65,2.07-3.01,3.05-4.09.98-1.08,2.07-1.89,3.28-2.43,1.21-.54,2.61-.81,4.21-.81,2.88,0,5.24.86,7.06,2.59,1.83,1.72,2.74,3.77,2.74,6.14,0,3.45-1.98,8.13-5.94,14.05l-22.31,33.34,24,36.97c2.16,3.24,3.73,5.93,4.71,8.07.98,2.14,1.47,4.16,1.47,6.06,0,1.8-.44,3.45-1.31,4.94-.88,1.49-2.11,2.68-3.7,3.55-1.6.87-3.4,1.31-5.4,1.31-2.16,0-3.99-.45-5.48-1.35-1.49-.9-2.7-2.02-3.63-3.36-.93-1.34-2.65-3.94-5.17-7.8l-19.91-31.34-21.15,32.26c-1.65,2.57-2.82,4.37-3.51,5.4-.69,1.03-1.53,2.03-2.51,3.01s-2.14,1.75-3.47,2.32c-1.34.57-2.91.85-4.71.85-2.78,0-5.08-.85-6.91-2.55-1.83-1.7-2.74-4.17-2.74-7.41,0-3.81,1.88-8.46,5.63-13.97Z"
           fill="#fff"
           stroke="#000"
           stroke-miterlimit="10"
           id="path14"
           style="fill:url(#linearGradient42);stroke:#000000;stroke-opacity:1" />
      </g>
      <g
         id="g16"
         style="fill:url(#linearGradient42);stroke:#000000;stroke-opacity:1">
        <path
           d="M92.81,188.58l61.85-74h-53.14c-3.72,0-6.53-.82-8.42-2.46-1.89-1.64-2.83-3.81-2.83-6.49s.94-5.05,2.83-6.78c1.89-1.72,4.69-2.59,8.42-2.59h68.5c8.87,0,13.31,4.14,13.31,12.4,0,3.94-.74,7.09-2.22,9.44-1.48,2.36-4.46,6.16-8.95,11.42l-57.82,68.83h63.73c3.78,0,6.6.78,8.46,2.34,1.86,1.56,2.79,3.74,2.79,6.53s-.93,5.2-2.79,6.9c-1.86,1.7-4.68,2.55-8.46,2.55h-78.19c-5.31,0-9.31-1.19-11.99-3.57-2.68-2.38-4.02-5.57-4.02-9.57,0-1.37.22-2.63.66-3.78.44-1.15,1.03-2.23,1.77-3.24.74-1.01,1.77-2.3,3.08-3.86,1.31-1.56,2.46-2.92,3.45-4.07Z"
           fill="#fff"
           stroke="#000"
           stroke-miterlimit="10"
           id="path15"
           style="fill:url(#linearGradient42);stroke:#000000;stroke-opacity:1" />
        <path
           d="M200.24,193.26l26.94-39.34-22.67-34.99c-2.14-3.39-3.74-6.31-4.8-8.75-1.07-2.44-1.6-4.78-1.6-7.02s1.03-4.37,3.08-6.2c2.05-1.83,4.56-2.75,7.52-2.75,3.39,0,6.04,1,7.93,3,1.89,2,4.5,5.71,7.84,11.13l18.07,29.24,19.3-29.24c1.59-2.46,2.94-4.57,4.07-6.32,1.12-1.75,2.2-3.2,3.24-4.35,1.04-1.15,2.2-2.01,3.49-2.59,1.29-.58,2.78-.86,4.48-.86,3.07,0,5.57.92,7.52,2.75,1.94,1.84,2.92,4.01,2.92,6.53,0,3.67-2.11,8.65-6.32,14.95l-23.74,35.48,25.54,39.34c2.3,3.45,3.97,6.31,5.01,8.58,1.04,2.27,1.56,4.42,1.56,6.45,0,1.92-.47,3.67-1.4,5.26-.93,1.59-2.25,2.85-3.94,3.78-1.7.93-3.61,1.4-5.75,1.4-2.3,0-4.24-.48-5.83-1.44-1.59-.96-2.88-2.15-3.86-3.57-.99-1.42-2.82-4.19-5.5-8.3l-21.19-33.35-22.5,34.33c-1.75,2.74-3,4.65-3.74,5.75-.74,1.1-1.63,2.16-2.67,3.2s-2.27,1.86-3.7,2.46c-1.42.6-3.09.9-5.01.9-2.96,0-5.41-.9-7.35-2.71-1.94-1.81-2.92-4.44-2.92-7.88,0-4.05,2-9.01,6-14.87Z"
           fill="#fff"
           stroke="#000"
           stroke-miterlimit="10"
           id="path16"
           style="fill:url(#linearGradient42);stroke:#000000;stroke-opacity:1" />
      </g>
      <g
         id="g18"
         style="fill:url(#linearGradient42);stroke:#000000;stroke-opacity:1">
        <path
           d="M87.07,190.19l65.57-78.46h-56.34c-3.95,0-6.92-.87-8.93-2.61-2-1.74-3-4.03-3-6.88s1-5.36,3-7.18c2-1.83,4.98-2.74,8.93-2.74h72.63c9.41,0,14.11,4.38,14.11,13.15,0,4.18-.78,7.52-2.35,10.01-1.57,2.5-4.73,6.53-9.49,12.1l-61.31,72.98h67.58c4.01,0,7,.83,8.97,2.48,1.97,1.65,2.96,3.96,2.96,6.92s-.99,5.52-2.96,7.32c-1.97,1.8-4.96,2.7-8.97,2.7h-82.9c-5.63,0-9.87-1.26-12.71-3.79-2.85-2.53-4.27-5.91-4.27-10.14,0-1.45.23-2.79.7-4.01.46-1.22,1.09-2.36,1.87-3.44.78-1.07,1.87-2.44,3.27-4.09,1.39-1.65,2.61-3.09,3.66-4.31Z"
           fill="#fff"
           stroke="#000"
           stroke-miterlimit="10"
           id="path17"
           style="fill:url(#linearGradient42);stroke:#000000;stroke-opacity:1" />
        <path
           d="M200.98,195.16l28.56-41.71-24.04-37.1c-2.26-3.6-3.96-6.69-5.09-9.27-1.13-2.58-1.7-5.06-1.7-7.45s1.09-4.63,3.27-6.57c2.18-1.94,4.83-2.92,7.97-2.92,3.6,0,6.4,1.06,8.4,3.18,2,2.12,4.77,6.05,8.32,11.8l19.16,31,20.46-31c1.68-2.61,3.12-4.85,4.31-6.71,1.19-1.86,2.34-3.4,3.44-4.62,1.1-1.22,2.34-2.13,3.7-2.74,1.36-.61,2.95-.91,4.75-.91,3.25,0,5.91.97,7.97,2.92,2.06,1.95,3.09,4.25,3.09,6.92,0,3.89-2.24,9.17-6.71,15.85l-25.17,37.62,27.08,41.71c2.44,3.66,4.21,6.69,5.31,9.1,1.1,2.41,1.65,4.69,1.65,6.84,0,2.03-.49,3.89-1.48,5.57-.99,1.68-2.38,3.02-4.18,4.01-1.8.99-3.83,1.48-6.1,1.48-2.44,0-4.5-.51-6.18-1.52-1.68-1.02-3.05-2.28-4.09-3.79-1.05-1.51-2.99-4.44-5.83-8.8l-22.47-35.36-23.86,36.4c-1.86,2.9-3.18,4.94-3.96,6.1-.78,1.16-1.73,2.29-2.83,3.4s-2.41,1.97-3.92,2.61c-1.51.64-3.28.96-5.31.96-3.14,0-5.73-.96-7.79-2.87-2.06-1.92-3.09-4.7-3.09-8.36,0-4.3,2.12-9.55,6.36-15.76Z"
           fill="#fff"
           stroke="#000"
           stroke-miterlimit="10"
           id="path18"
           style="fill:url(#linearGradient42);stroke:#000000;stroke-opacity:1" />
      </g>
      <g
         id="g20"
         style="fill:url(#linearGradient42);stroke:#000000;stroke-opacity:1">
        <path
           d="M81.33,191.81l69.3-82.92h-59.55c-4.17,0-7.32-.92-9.43-2.76-2.12-1.84-3.17-4.26-3.17-7.27s1.06-5.66,3.17-7.59c2.12-1.93,5.26-2.9,9.43-2.9h76.76c9.94,0,14.91,4.63,14.91,13.9,0,4.42-.83,7.95-2.48,10.58-1.66,2.64-5,6.9-10.03,12.79l-64.79,77.12h71.42c4.23,0,7.39.87,9.48,2.62,2.09,1.75,3.13,4.19,3.13,7.32s-1.04,5.83-3.13,7.73c-2.09,1.9-5.25,2.85-9.48,2.85h-87.62c-5.95,0-10.43-1.33-13.44-4-3.01-2.67-4.51-6.24-4.51-10.72,0-1.53.24-2.95.74-4.23.49-1.29,1.15-2.5,1.98-3.64.83-1.13,1.98-2.58,3.45-4.33,1.47-1.75,2.76-3.27,3.87-4.56Z"
           fill="#fff"
           stroke="#000"
           stroke-miterlimit="10"
           id="path19"
           style="fill:url(#linearGradient42);stroke:#000000;stroke-opacity:1" />
        <path
           d="M201.71,197.06l30.19-44.08-25.4-39.21c-2.39-3.8-4.19-7.07-5.38-9.8-1.2-2.73-1.79-5.35-1.79-7.87s1.15-4.89,3.45-6.95c2.3-2.06,5.11-3.08,8.42-3.08,3.8,0,6.76,1.12,8.88,3.36,2.12,2.24,5.05,6.4,8.79,12.47l20.25,32.76,21.63-32.76c1.78-2.76,3.3-5.12,4.56-7.09,1.26-1.96,2.47-3.59,3.64-4.88,1.16-1.29,2.47-2.25,3.91-2.9,1.44-.64,3.11-.97,5.02-.97,3.44,0,6.24,1.03,8.42,3.08,2.18,2.06,3.27,4.5,3.27,7.32,0,4.11-2.36,9.7-7.09,16.75l-26.6,39.76,28.62,44.08c2.58,3.87,4.45,7.07,5.61,9.62,1.16,2.55,1.75,4.96,1.75,7.22,0,2.15-.52,4.11-1.56,5.89-1.04,1.78-2.52,3.19-4.42,4.23-1.9,1.04-4.05,1.56-6.44,1.56-2.58,0-4.76-.54-6.53-1.61-1.78-1.07-3.22-2.41-4.33-4-1.1-1.59-3.16-4.69-6.17-9.3l-23.74-37.37-25.22,38.47c-1.96,3.07-3.36,5.22-4.19,6.44-.83,1.23-1.83,2.42-2.99,3.59s-2.55,2.09-4.14,2.76c-1.6.67-3.47,1.01-5.61,1.01-3.31,0-6.06-1.01-8.24-3.04-2.18-2.03-3.27-4.97-3.27-8.84,0-4.54,2.24-10.09,6.72-16.66Z"
           fill="#fff"
           stroke="#000"
           stroke-miterlimit="10"
           id="path20"
           style="fill:url(#linearGradient42);stroke:#000000;stroke-opacity:1" />
      </g>
      <g
         id="g22"
         style="fill:url(#linearGradient42);stroke:#000000;stroke-opacity:1">
        <path
           d="M75.6,193.43l73.03-87.38h-62.75c-4.4,0-7.71-.97-9.94-2.91-2.23-1.94-3.35-4.49-3.35-7.66s1.12-5.96,3.35-8c2.23-2.04,5.54-3.06,9.94-3.06h80.88c10.47,0,15.71,4.88,15.71,14.64,0,4.65-.87,8.37-2.62,11.15-1.75,2.78-5.27,7.27-10.57,13.48l-68.28,81.27h75.26c4.46,0,7.79.92,9.99,2.76,2.2,1.84,3.3,4.41,3.3,7.71s-1.1,6.14-3.3,8.15c-2.2,2-5.53,3.01-9.99,3.01h-92.33c-6.27,0-10.99-1.41-14.16-4.22-3.17-2.81-4.75-6.58-4.75-11.3,0-1.62.26-3.1.78-4.46.52-1.36,1.21-2.63,2.08-3.83.87-1.2,2.09-2.72,3.64-4.56,1.55-1.84,2.91-3.44,4.07-4.8Z"
           fill="#fff"
           stroke="#000"
           stroke-miterlimit="10"
           id="path21"
           style="fill:url(#linearGradient42);stroke:#000000;stroke-opacity:1" />
        <path
           d="M202.45,198.96l31.81-46.46-26.77-41.31c-2.52-4.01-4.41-7.45-5.67-10.33-1.26-2.88-1.89-5.64-1.89-8.29s1.21-5.15,3.64-7.32c2.42-2.17,5.38-3.25,8.87-3.25,4.01,0,7.13,1.18,9.36,3.54,2.23,2.36,5.32,6.74,9.26,13.14l21.34,34.53,22.79-34.53c1.87-2.91,3.47-5.4,4.8-7.47,1.32-2.07,2.6-3.78,3.83-5.14,1.23-1.36,2.6-2.38,4.12-3.06,1.52-.68,3.28-1.02,5.29-1.02,3.62,0,6.58,1.08,8.87,3.25,2.29,2.17,3.44,4.74,3.44,7.71,0,4.33-2.49,10.22-7.47,17.65l-28.03,41.9,30.16,46.46c2.72,4.07,4.69,7.45,5.92,10.13,1.23,2.68,1.84,5.22,1.84,7.61,0,2.26-.55,4.33-1.65,6.21-1.1,1.88-2.65,3.36-4.65,4.46-2.01,1.1-4.27,1.65-6.79,1.65-2.72,0-5.01-.57-6.89-1.7-1.88-1.13-3.39-2.54-4.56-4.22-1.16-1.68-3.33-4.95-6.5-9.8l-25.02-39.37-26.57,40.54c-2.07,3.23-3.54,5.5-4.41,6.79-.87,1.29-1.92,2.55-3.15,3.78s-2.68,2.2-4.36,2.91c-1.68.71-3.65,1.07-5.92,1.07-3.49,0-6.39-1.07-8.68-3.2-2.3-2.13-3.44-5.24-3.44-9.31,0-4.78,2.36-10.63,7.08-17.55Z"
           fill="#fff"
           stroke="#000"
           stroke-miterlimit="10"
           id="path22"
           style="fill:url(#linearGradient42);stroke:#000000;stroke-opacity:1" />
      </g>
      <g
         id="g24"
         style="fill:url(#linearGradient42);stroke:#000000;stroke-opacity:1">
        <path
           d="M69.86,195.04l76.76-91.84h-65.95c-4.62,0-8.1-1.02-10.45-3.06-2.34-2.04-3.52-4.72-3.52-8.05s1.17-6.27,3.52-8.41c2.34-2.14,5.83-3.21,10.45-3.21h85.01c11.01,0,16.51,5.13,16.51,15.39,0,4.89-.92,8.8-2.75,11.72-1.83,2.92-5.54,7.65-11.11,14.17l-71.76,85.42h79.1c4.69,0,8.19.97,10.5,2.9,2.31,1.94,3.47,4.64,3.47,8.1s-1.16,6.46-3.47,8.56c-2.31,2.11-5.81,3.16-10.5,3.16h-97.04c-6.59,0-11.55-1.48-14.88-4.43-3.33-2.96-4.99-6.91-4.99-11.87,0-1.7.27-3.26.82-4.69.54-1.43,1.27-2.77,2.19-4.03.92-1.26,2.19-2.85,3.82-4.79,1.63-1.94,3.06-3.62,4.28-5.05Z"
           fill="#fff"
           stroke="#000"
           stroke-miterlimit="10"
           id="path23"
           style="fill:url(#linearGradient42);stroke:#000000;stroke-opacity:1" />
        <path
           d="M203.19,200.86l33.43-48.83-28.13-43.42c-2.65-4.21-4.64-7.83-5.96-10.86-1.33-3.02-1.99-5.93-1.99-8.71s1.27-5.42,3.82-7.7c2.55-2.28,5.66-3.41,9.33-3.41,4.21,0,7.49,1.24,9.84,3.72,2.34,2.48,5.59,7.08,9.73,13.81l22.43,36.29,23.95-36.29c1.97-3.06,3.65-5.67,5.05-7.85,1.39-2.17,2.73-3.98,4.03-5.4,1.29-1.43,2.73-2.5,4.33-3.21,1.6-.71,3.45-1.07,5.56-1.07,3.8,0,6.91,1.14,9.33,3.41,2.41,2.28,3.62,4.98,3.62,8.1,0,4.55-2.62,10.74-7.85,18.55l-29.46,44.04,31.7,48.83c2.85,4.28,4.93,7.83,6.22,10.65,1.29,2.82,1.94,5.49,1.94,8,0,2.38-.58,4.55-1.73,6.52-1.16,1.97-2.79,3.53-4.89,4.69-2.11,1.15-4.49,1.73-7.14,1.73-2.85,0-5.27-.6-7.24-1.78-1.97-1.19-3.57-2.67-4.79-4.43-1.22-1.77-3.5-5.2-6.83-10.3l-26.3-41.38-27.93,42.61c-2.18,3.4-3.72,5.78-4.64,7.14-.92,1.36-2.02,2.69-3.31,3.98s-2.82,2.31-4.59,3.06c-1.77.75-3.84,1.12-6.22,1.12-3.67,0-6.71-1.12-9.12-3.36-2.41-2.24-3.62-5.5-3.62-9.79,0-5.03,2.48-11.18,7.44-18.45Z"
           fill="#fff"
           stroke="#000"
           stroke-miterlimit="10"
           id="path24"
           style="fill:url(#linearGradient42);stroke:#000000;stroke-opacity:1" />
      </g>
      <g
         id="g26"
         style="fill:url(#linearGradient42);stroke:#000000;stroke-opacity:1">
        <path
           d="M64.12,196.66l80.48-96.3h-69.15c-4.85,0-8.5-1.07-10.96-3.21-2.46-2.14-3.69-4.95-3.69-8.44s1.23-6.57,3.69-8.82c2.46-2.24,6.11-3.37,10.96-3.37h89.14c11.54,0,17.31,5.38,17.31,16.14,0,5.13-.96,9.23-2.89,12.29-1.92,3.06-5.81,8.02-11.65,14.86l-75.25,89.57h82.94c4.92,0,8.59,1.02,11.01,3.05,2.42,2.03,3.63,4.86,3.63,8.5s-1.21,6.77-3.63,8.98c-2.42,2.21-6.09,3.31-11.01,3.31h-101.75c-6.91,0-12.11-1.55-15.6-4.65-3.49-3.1-5.24-7.25-5.24-12.45,0-1.78.28-3.42.85-4.92.57-1.5,1.34-2.9,2.3-4.22.96-1.32,2.3-2.99,4.01-5.02,1.71-2.03,3.21-3.79,4.49-5.29Z"
           fill="#fff"
           stroke="#000"
           stroke-miterlimit="10"
           id="path25"
           style="fill:url(#linearGradient42);stroke:#000000;stroke-opacity:1" />
        <path
           d="M203.93,202.75l35.06-51.2-29.5-45.53c-2.78-4.42-4.86-8.21-6.25-11.38-1.39-3.17-2.08-6.22-2.08-9.14s1.34-5.68,4.01-8.07c2.67-2.39,5.93-3.58,9.78-3.58,4.42,0,7.86,1.3,10.31,3.9,2.46,2.6,5.86,7.43,10.21,14.48l23.51,38.05,25.12-38.05c2.07-3.21,3.83-5.95,5.29-8.23,1.46-2.28,2.87-4.17,4.22-5.66,1.35-1.5,2.87-2.62,4.54-3.37,1.67-.75,3.62-1.12,5.82-1.12,3.99,0,7.25,1.19,9.78,3.58,2.53,2.39,3.79,5.22,3.79,8.5,0,4.77-2.74,11.26-8.23,19.45l-30.89,46.17,33.24,51.2c2.99,4.49,5.17,8.21,6.52,11.17,1.35,2.96,2.03,5.76,2.03,8.39,0,2.5-.61,4.77-1.82,6.84-1.21,2.07-2.92,3.71-5.13,4.92-2.21,1.21-4.7,1.82-7.48,1.82-2.99,0-5.52-.63-7.59-1.87-2.07-1.25-3.74-2.8-5.02-4.65-1.28-1.85-3.67-5.45-7.16-10.8l-27.58-43.39-29.29,44.68c-2.28,3.56-3.9,6.06-4.86,7.48-.96,1.43-2.12,2.82-3.47,4.17s-2.96,2.42-4.81,3.21c-1.85.78-4.03,1.18-6.52,1.18-3.85,0-7.04-1.18-9.57-3.53-2.53-2.35-3.79-5.77-3.79-10.26,0-5.27,2.6-11.72,7.8-19.35Z"
           fill="#fff"
           stroke="#000"
           stroke-miterlimit="10"
           id="path26"
           style="fill:url(#linearGradient42);stroke:#000000;stroke-opacity:1" />
      </g>
      <g
         id="g28"
         style="fill:url(#linearGradient42);stroke:#000000;stroke-opacity:1">
        <path
           d="M58.39,198.28l84.21-100.76h-72.36c-5.07,0-8.89-1.12-11.46-3.36-2.57-2.24-3.86-5.18-3.86-8.83s1.29-6.88,3.86-9.23c2.57-2.35,6.39-3.52,11.46-3.52h93.27c12.08,0,18.12,5.63,18.12,16.89,0,5.37-1.01,9.66-3.02,12.86-2.01,3.21-6.08,8.39-12.19,15.54l-78.73,93.72h86.78c5.14,0,8.98,1.06,11.52,3.19,2.53,2.12,3.8,5.09,3.8,8.89s-1.27,7.08-3.8,9.39c-2.54,2.31-6.37,3.47-11.52,3.47h-106.47c-7.23,0-12.68-1.62-16.33-4.86-3.65-3.24-5.48-7.59-5.48-13.03,0-1.86.3-3.58.89-5.14.6-1.57,1.4-3.04,2.4-4.42,1.01-1.38,2.4-3.13,4.19-5.26,1.79-2.12,3.35-3.97,4.7-5.54Z"
           fill="#fff"
           stroke="#000"
           stroke-miterlimit="10"
           id="path27"
           style="fill:url(#linearGradient42);stroke:#000000;stroke-opacity:1" />
        <path
           d="M204.66,204.65l36.68-53.57-30.87-47.64c-2.91-4.62-5.09-8.59-6.54-11.91-1.45-3.32-2.18-6.5-2.18-9.56s1.4-5.94,4.19-8.44c2.8-2.5,6.21-3.75,10.23-3.75,4.62,0,8.22,1.36,10.79,4.08,2.57,2.72,6.13,7.77,10.68,15.15l24.6,39.81,26.28-39.81c2.16-3.36,4.01-6.22,5.54-8.61,1.53-2.39,3-4.36,4.42-5.93,1.42-1.57,3-2.74,4.75-3.52,1.75-.78,3.78-1.17,6.09-1.17,4.17,0,7.59,1.25,10.23,3.75,2.65,2.5,3.97,5.46,3.97,8.89,0,5-2.87,11.78-8.61,20.35l-32.32,48.31,34.78,53.57c3.13,4.7,5.4,8.59,6.82,11.69,1.42,3.09,2.12,6.02,2.12,8.78,0,2.61-.63,5-1.9,7.16-1.27,2.16-3.06,3.88-5.37,5.14-2.31,1.27-4.92,1.9-7.83,1.9-3.13,0-5.78-.65-7.94-1.96-2.16-1.3-3.91-2.93-5.26-4.86-1.34-1.94-3.84-5.7-7.49-11.3l-28.85-45.4-30.64,46.75c-2.39,3.73-4.08,6.34-5.09,7.83-1.01,1.49-2.22,2.95-3.63,4.36s-3.09,2.53-5.03,3.36c-1.94.82-4.21,1.23-6.82,1.23-4.03,0-7.36-1.23-10.01-3.69-2.65-2.46-3.97-6.04-3.97-10.74,0-5.52,2.72-12.26,8.16-20.24Z"
           fill="#fff"
           stroke="#000"
           stroke-miterlimit="10"
           id="path28"
           style="fill:url(#linearGradient42);stroke:#000000;stroke-opacity:1" />
      </g>
      <g
         id="g30"
         style="fill:url(#linearGradient42);stroke:#000000;stroke-opacity:1">
        <path
           d="M52.65,199.9l87.94-105.22h-75.56c-5.3,0-9.28-1.17-11.97-3.5-2.69-2.34-4.03-5.41-4.03-9.23s1.34-7.18,4.03-9.63c2.69-2.45,6.68-3.68,11.97-3.68h97.4c12.61,0,18.92,5.88,18.92,17.63,0,5.61-1.05,10.08-3.15,13.43-2.1,3.35-6.35,8.76-12.73,16.23l-82.22,97.86h90.62c5.37,0,9.38,1.11,12.03,3.33,2.65,2.22,3.97,5.31,3.97,9.28s-1.33,7.4-3.97,9.81c-2.65,2.41-6.66,3.62-12.03,3.62H62.69c-7.55,0-13.24-1.69-17.05-5.08-3.82-3.39-5.72-7.92-5.72-13.61,0-1.95.31-3.74.93-5.37.62-1.63,1.46-3.17,2.51-4.61,1.05-1.44,2.51-3.27,4.38-5.49,1.87-2.22,3.5-4.15,4.9-5.78Z"
           fill="#fff"
           stroke="#000"
           stroke-miterlimit="10"
           id="path29"
           style="fill:url(#linearGradient42);stroke:#000000;stroke-opacity:1" />
        <path
           d="M205.4,206.55l38.3-55.94-32.23-49.75c-3.04-4.83-5.31-8.97-6.83-12.44-1.52-3.46-2.28-6.79-2.28-9.98s1.46-6.21,4.38-8.82c2.92-2.61,6.48-3.91,10.69-3.91,4.83,0,8.58,1.42,11.27,4.26,2.69,2.84,6.4,8.12,11.15,15.82l25.69,41.57,27.44-41.57c2.26-3.5,4.18-6.5,5.78-8.99,1.59-2.49,3.13-4.55,4.61-6.19,1.48-1.64,3.13-2.86,4.96-3.68,1.83-.82,3.95-1.23,6.36-1.23,4.36,0,7.92,1.3,10.69,3.91,2.76,2.61,4.15,5.7,4.15,9.28,0,5.22-3,12.3-8.99,21.25l-33.75,50.45,36.32,55.94c3.27,4.9,5.64,8.97,7.12,12.2,1.48,3.23,2.22,6.29,2.22,9.17,0,2.73-.66,5.22-1.99,7.47-1.33,2.26-3.19,4.05-5.61,5.37-2.41,1.32-5.14,1.99-8.17,1.99-3.27,0-6.03-.68-8.29-2.04-2.26-1.36-4.09-3.05-5.49-5.08-1.4-2.02-4.01-5.96-7.82-11.8l-30.13-47.41-32,48.82c-2.49,3.89-4.26,6.62-5.31,8.17-1.05,1.56-2.32,3.08-3.8,4.55s-3.23,2.65-5.26,3.5c-2.03.86-4.4,1.28-7.12,1.28-4.2,0-7.69-1.28-10.45-3.85-2.76-2.57-4.15-6.31-4.15-11.21,0-5.76,2.84-12.81,8.53-21.14Z"
           fill="#fff"
           stroke="#000"
           stroke-miterlimit="10"
           id="path30"
           style="fill:url(#linearGradient42);stroke:#000000;stroke-opacity:1" />
      </g>
      <g
         id="g32"
         style="fill:url(#linearGradient42);stroke:#000000;stroke-opacity:1">
        <path
           d="M46.91,201.51l91.67-109.68H59.81c-5.52,0-9.68-1.22-12.48-3.65-2.8-2.43-4.2-5.64-4.2-9.62s1.4-7.49,4.2-10.04c2.8-2.56,6.96-3.83,12.48-3.83h101.53c13.15,0,19.72,6.13,19.72,18.38,0,5.84-1.1,10.51-3.29,14-2.19,3.49-6.62,9.13-13.27,16.92l-85.7,102.01h94.47c5.6,0,9.78,1.16,12.54,3.47,2.76,2.31,4.14,5.54,4.14,9.68s-1.38,7.71-4.14,10.23c-2.76,2.52-6.94,3.77-12.54,3.77H57.38c-7.87,0-13.8-1.77-17.77-5.3-3.98-3.53-5.96-8.26-5.96-14.18,0-2.03.32-3.9.97-5.6.65-1.7,1.52-3.31,2.62-4.81,1.1-1.5,2.62-3.41,4.57-5.72,1.95-2.31,3.65-4.32,5.11-6.03Z"
           fill="#fff"
           stroke="#000"
           stroke-miterlimit="10"
           id="path31"
           style="fill:url(#linearGradient42);stroke:#000000;stroke-opacity:1" />
        <path
           d="M206.14,208.45l39.93-58.31-33.6-51.86c-3.16-5.03-5.54-9.35-7.12-12.96-1.58-3.61-2.37-7.08-2.37-10.41s1.52-6.47,4.56-9.19c3.04-2.72,6.76-4.08,11.14-4.08,5.03,0,8.95,1.48,11.75,4.44,2.8,2.96,6.67,8.46,11.63,16.5l26.78,43.34,28.61-43.34c2.35-3.65,4.36-6.77,6.03-9.37,1.66-2.6,3.27-4.75,4.81-6.45,1.54-1.7,3.27-2.98,5.17-3.83,1.91-.85,4.12-1.28,6.63-1.28,4.54,0,8.26,1.36,11.14,4.08,2.88,2.72,4.32,5.95,4.32,9.68,0,5.44-3.13,12.82-9.37,22.16l-35.18,52.59,37.86,58.31c3.41,5.11,5.88,9.35,7.43,12.72,1.54,3.37,2.31,6.55,2.31,9.56,0,2.84-.69,5.44-2.07,7.79-1.38,2.36-3.33,4.22-5.84,5.6-2.52,1.38-5.36,2.07-8.52,2.07-3.41,0-6.29-.71-8.64-2.13-2.36-1.42-4.26-3.18-5.72-5.3-1.46-2.11-4.18-6.21-8.16-12.3l-31.41-49.42-33.35,50.88c-2.6,4.06-4.44,6.9-5.54,8.52-1.1,1.62-2.42,3.21-3.96,4.75s-3.37,2.76-5.48,3.65c-2.11.89-4.59,1.34-7.43,1.34-4.38,0-8.02-1.34-10.9-4.02-2.88-2.68-4.32-6.57-4.32-11.69,0-6,2.96-13.35,8.89-22.03Z"
           fill="#fff"
           stroke="#000"
           stroke-miterlimit="10"
           id="path32"
           style="fill:url(#linearGradient42);stroke:#000000;stroke-opacity:1" />
      </g>
      <g
         id="g34"
         style="fill:url(#linearGradient42);stroke:#000000;stroke-opacity:1">
        <path
           d="M41.17,203.13l95.39-114.14H54.6c-5.74,0-10.07-1.27-12.99-3.8-2.91-2.53-4.37-5.87-4.37-10.01s1.46-7.79,4.37-10.45c2.91-2.66,7.24-3.99,12.99-3.99h105.65c13.68,0,20.52,6.38,20.52,19.13,0,6.08-1.14,10.94-3.42,14.57-2.28,3.63-6.88,9.5-13.81,17.61l-89.19,106.16h98.31c5.83,0,10.18,1.2,13.05,3.61,2.87,2.41,4.31,5.76,4.31,10.07s-1.44,8.03-4.31,10.64c-2.87,2.62-7.22,3.93-13.05,3.93H52.07c-8.19,0-14.36-1.84-18.5-5.51-4.14-3.67-6.21-8.59-6.21-14.76,0-2.11.34-4.05,1.01-5.83.67-1.77,1.58-3.44,2.72-5,1.14-1.56,2.72-3.55,4.75-5.95,2.03-2.41,3.8-4.5,5.32-6.27Z"
           fill="#fff"
           stroke="#000"
           stroke-miterlimit="10"
           id="path33"
           style="fill:url(#linearGradient42);stroke:#000000;stroke-opacity:1" />
        <path
           d="M206.88,210.35l41.55-60.68-34.96-53.97c-3.29-5.24-5.76-9.73-7.41-13.49-1.65-3.76-2.47-7.37-2.47-10.83s1.58-6.73,4.75-9.56c3.17-2.83,7.03-4.24,11.59-4.24,5.24,0,9.31,1.54,12.23,4.62,2.91,3.08,6.95,8.8,12.1,17.17l27.87,45.1,29.77-45.1c2.45-3.8,4.54-7.05,6.27-9.75,1.73-2.7,3.4-4.94,5-6.71,1.6-1.77,3.4-3.1,5.38-3.99,1.98-.89,4.29-1.33,6.9-1.33,4.73,0,8.59,1.42,11.59,4.24,3,2.83,4.5,6.19,4.5,10.07,0,5.66-3.25,13.35-9.75,23.06l-36.61,54.73,39.4,60.68c3.55,5.32,6.12,9.74,7.73,13.24,1.6,3.51,2.41,6.82,2.41,9.94,0,2.96-.72,5.66-2.15,8.11-1.44,2.45-3.46,4.39-6.08,5.83-2.62,1.44-5.57,2.15-8.87,2.15-3.55,0-6.55-.74-8.99-2.22-2.45-1.48-4.43-3.31-5.95-5.51-1.52-2.2-4.35-6.46-8.49-12.8l-32.68-51.43-34.71,52.95c-2.7,4.22-4.62,7.18-5.76,8.87-1.14,1.69-2.51,3.34-4.12,4.94s-3.51,2.87-5.7,3.8c-2.2.93-4.77,1.39-7.73,1.39-4.56,0-8.34-1.39-11.34-4.18-3-2.79-4.5-6.84-4.5-12.16,0-6.25,3.08-13.89,9.25-22.93Z"
           fill="#fff"
           stroke="#000"
           stroke-miterlimit="10"
           id="path34"
           style="fill:url(#linearGradient42);stroke:#000000;stroke-opacity:1" />
      </g>
      <g
         id="g36"
         style="fill:url(#linearGradient42);stroke:#000000;stroke-opacity:1">
        <path
           d="M35.44,204.75l99.12-118.6H49.39c-5.97,0-10.46-1.32-13.49-3.95-3.03-2.63-4.54-6.1-4.54-10.4s1.51-8.1,4.54-10.86c3.03-2.76,7.52-4.15,13.49-4.15h109.78c14.22,0,21.32,6.63,21.32,19.88,0,6.32-1.18,11.37-3.55,15.14-2.37,3.77-7.15,9.87-14.35,18.3l-92.67,110.31h102.15c6.06,0,10.57,1.25,13.56,3.75,2.98,2.5,4.48,5.99,4.48,10.46s-1.49,8.34-4.48,11.06c-2.98,2.72-7.5,4.08-13.56,4.08H46.76c-8.51,0-14.92-1.91-19.22-5.73-4.3-3.82-6.45-8.93-6.45-15.34,0-2.19.35-4.21,1.05-6.06.7-1.84,1.65-3.57,2.83-5.2,1.18-1.62,2.83-3.69,4.94-6.19,2.11-2.5,3.95-4.67,5.53-6.52Z"
           fill="#fff"
           stroke="#000"
           stroke-miterlimit="10"
           id="path35"
           style="fill:url(#linearGradient42);stroke:#000000;stroke-opacity:1" />
        <path
           d="M207.61,212.25l43.18-63.05-36.33-56.08c-3.42-5.44-5.99-10.11-7.7-14.02-1.71-3.9-2.57-7.65-2.57-11.25s1.65-7,4.94-9.94c3.29-2.94,7.31-4.41,12.04-4.41,5.44,0,9.68,1.6,12.7,4.8,3.03,3.2,7.22,9.15,12.57,17.84l28.96,46.86,30.93-46.86c2.54-3.95,4.72-7.33,6.52-10.14,1.8-2.81,3.53-5.13,5.2-6.98,1.67-1.84,3.53-3.23,5.59-4.15,2.06-.92,4.45-1.38,7.17-1.38,4.91,0,8.93,1.47,12.04,4.41,3.11,2.94,4.67,6.43,4.67,10.46,0,5.88-3.38,13.87-10.14,23.96l-38.04,56.87,40.94,63.05c3.69,5.53,6.36,10.12,8.03,13.76,1.67,3.64,2.5,7.09,2.5,10.33,0,3.07-.75,5.88-2.24,8.42-1.49,2.55-3.6,4.56-6.32,6.06-2.72,1.49-5.79,2.24-9.21,2.24-3.69,0-6.8-.77-9.35-2.3-2.55-1.53-4.61-3.44-6.19-5.73-1.58-2.28-4.52-6.71-8.82-13.3l-33.96-53.44-36.07,55.02c-2.81,4.39-4.8,7.46-5.99,9.21-1.18,1.76-2.61,3.47-4.28,5.13s-3.64,2.98-5.92,3.95c-2.28.96-4.96,1.45-8.03,1.45-4.74,0-8.67-1.45-11.78-4.34-3.12-2.9-4.67-7.11-4.67-12.64,0-6.49,3.2-14.43,9.61-23.83Z"
           fill="#fff"
           stroke="#000"
           stroke-miterlimit="10"
           id="path36"
           style="fill:url(#linearGradient42);stroke:#000000;stroke-opacity:1" />
      </g>
      <g
         id="g38"
         style="fill:url(#linearGradient42);stroke:#000000;stroke-opacity:1">
        <path
           d="M29.7,206.37l102.85-123.06H44.18c-6.19,0-10.86-1.37-14-4.1-3.14-2.73-4.71-6.33-4.71-10.79s1.57-8.4,4.71-11.27c3.14-2.87,7.81-4.3,14-4.3h113.91c14.75,0,22.13,6.88,22.13,20.62,0,6.56-1.23,11.79-3.69,15.71-2.46,3.92-7.42,10.24-14.89,18.99l-96.16,114.46h105.99c6.28,0,10.97,1.3,14.07,3.89,3.09,2.6,4.64,6.21,4.64,10.86s-1.55,8.65-4.64,11.47c-3.1,2.82-7.79,4.23-14.07,4.23H41.45c-8.83,0-15.48-1.98-19.94-5.94-4.46-3.96-6.69-9.26-6.69-15.91,0-2.27.36-4.37,1.09-6.28.73-1.91,1.71-3.71,2.94-5.4,1.23-1.68,2.94-3.82,5.12-6.42,2.19-2.6,4.1-4.85,5.74-6.76Z"
           fill="#fff"
           stroke="#000"
           stroke-miterlimit="10"
           id="path37"
           style="fill:url(#linearGradient42);stroke:#000000;stroke-opacity:1" />
        <path
           d="M208.35,214.15l44.8-65.42-37.7-58.18c-3.55-5.64-6.21-10.49-7.99-14.55-1.78-4.05-2.66-7.94-2.66-11.68s1.71-7.26,5.12-10.31c3.41-3.05,7.58-4.58,12.5-4.58,5.64,0,10.04,1.66,13.18,4.99,3.14,3.33,7.49,9.49,13.04,18.51l30.05,48.62,32.1-48.62c2.64-4.1,4.89-7.6,6.76-10.52,1.86-2.91,3.66-5.33,5.4-7.24,1.73-1.91,3.66-3.35,5.8-4.3,2.14-.96,4.62-1.43,7.44-1.43,5.1,0,9.26,1.53,12.5,4.58,3.23,3.05,4.85,6.67,4.85,10.86,0,6.1-3.51,14.39-10.52,24.86l-39.47,59,42.48,65.42c3.82,5.74,6.6,10.5,8.33,14.27,1.73,3.78,2.6,7.35,2.6,10.72,0,3.19-.77,6.1-2.32,8.74-1.55,2.64-3.74,4.74-6.56,6.28-2.82,1.55-6.01,2.32-9.56,2.32-3.82,0-7.06-.8-9.7-2.39-2.64-1.59-4.78-3.57-6.42-5.94-1.64-2.37-4.69-6.97-9.15-13.8l-35.24-55.45-37.42,57.09c-2.92,4.55-4.99,7.74-6.21,9.56-1.23,1.82-2.71,3.6-4.44,5.33s-3.78,3.09-6.15,4.1c-2.37,1-5.15,1.5-8.33,1.5-4.92,0-8.99-1.5-12.22-4.51-3.23-3-4.85-7.38-4.85-13.11,0-6.74,3.32-14.98,9.97-24.72Z"
           fill="#fff"
           stroke="#000"
           stroke-miterlimit="10"
           id="path38"
           style="fill:url(#linearGradient42);stroke:#000000;stroke-opacity:1" />
      </g>
      <g
         id="g40"
         style="fill:url(#linearGradient42);stroke:#000000;stroke-opacity:1">
        <path
           d="M23.96,207.98l106.58-127.52H38.96c-6.42,0-11.25-1.42-14.51-4.25-3.26-2.83-4.88-6.56-4.88-11.18s1.63-8.7,4.88-11.68c3.26-2.97,8.09-4.46,14.51-4.46h118.04c15.29,0,22.93,7.13,22.93,21.37,0,6.79-1.27,12.22-3.82,16.28-2.55,4.06-7.69,10.62-15.43,19.67l-99.64,118.61h109.83c6.51,0,11.37,1.34,14.58,4.03,3.21,2.69,4.81,6.44,4.81,11.25s-1.61,8.97-4.81,11.89c-3.21,2.93-8.07,4.39-14.58,4.39H36.13c-9.15,0-16.04-2.05-20.66-6.16-4.62-4.1-6.94-9.6-6.94-16.49,0-2.36.38-4.53,1.13-6.51.75-1.98,1.77-3.84,3.04-5.59,1.27-1.74,3.04-3.96,5.31-6.65,2.26-2.69,4.25-5.02,5.94-7.01Z"
           fill="#fff"
           stroke="#000"
           stroke-miterlimit="10"
           id="path39"
           style="fill:url(#linearGradient42);stroke:#000000;stroke-opacity:1" />
        <path
           d="M209.09,216.05l46.42-67.79-39.06-60.29c-3.68-5.85-6.44-10.87-8.28-15.07-1.84-4.2-2.76-8.23-2.76-12.1s1.77-7.52,5.31-10.69c3.54-3.16,7.86-4.74,12.95-4.74,5.85,0,10.4,1.72,13.66,5.17,3.26,3.45,7.76,9.84,13.52,19.18l31.14,50.39,33.26-50.39c2.74-4.25,5.07-7.88,7.01-10.9,1.93-3.02,3.8-5.52,5.59-7.5,1.79-1.98,3.8-3.47,6.02-4.46,2.22-.99,4.79-1.49,7.71-1.49,5.28,0,9.6,1.58,12.95,4.74,3.35,3.16,5.02,6.91,5.02,11.25,0,6.32-3.63,14.91-10.9,25.76l-40.9,61.14,44.02,67.79c3.96,5.94,6.84,10.88,8.63,14.79,1.79,3.92,2.69,7.62,2.69,11.11,0,3.3-.8,6.32-2.41,9.06-1.61,2.74-3.87,4.91-6.79,6.51-2.93,1.6-6.23,2.41-9.91,2.41-3.96,0-7.31-.83-10.05-2.48-2.74-1.65-4.95-3.7-6.65-6.16-1.7-2.45-4.86-7.22-9.48-14.29l-36.52-57.46-38.78,59.16c-3.02,4.72-5.17,8.02-6.44,9.91-1.27,1.89-2.81,3.73-4.6,5.52s-3.92,3.21-6.37,4.25c-2.46,1.04-5.33,1.56-8.63,1.56-5.1,0-9.32-1.56-12.67-4.67-3.35-3.11-5.02-7.64-5.02-13.59,0-6.98,3.44-15.52,10.33-25.62Z"
           fill="#fff"
           stroke="#000"
           stroke-miterlimit="10"
           id="path40"
           style="fill:url(#linearGradient42);stroke:#000000;stroke-opacity:1" />
      </g>
      <text
         transform="translate(.5 259.7)"
         fill="#fff"
         font-family="ArialRoundedMTBold, 'Arial Rounded MT Bold'"
         font-size="300"
         stroke="#000"
         stroke-miterlimit="10"
         id="text40"
         style="fill:url(#linearGradient42);stroke:#000000;stroke-opacity:1"><tspan
           x="0"
           y="0"
           id="tspan40"
           style="fill:url(#linearGradient42);stroke:#000000;stroke-opacity:1">ZX</tspan></text>
    </g>
  </g>
</svg>
